<mxfile host="app.diagrams.net" modified="2020-10-11T09:33:16.138Z" agent="5.0 (X11; Linux x86_64) AppleWebKit/537.36 (KHTML, like Gecko) Chrome/86.0.4240.75 Safari/537.36" etag="8kC2fqt3hAxtmxBDE59h" version="13.7.9" type="github">
  <diagram id="SIfQxONZpjK0ZJXrNzin" name="Page-1">
    <mxGraphModel dx="2005" dy="719" grid="1" gridSize="10" guides="1" tooltips="1" connect="1" arrows="1" fold="1" page="1" pageScale="1" pageWidth="850" pageHeight="1100" math="0" shadow="0">
      <root>
        <mxCell id="0" />
        <mxCell id="1" parent="0" />
        <mxCell id="lu-0-9wE4Z08YnNVhSAf-4" value="" style="edgeStyle=orthogonalEdgeStyle;rounded=0;orthogonalLoop=1;jettySize=auto;html=1;" edge="1" parent="1" source="lu-0-9wE4Z08YnNVhSAf-3" target="lu-0-9wE4Z08YnNVhSAf-1">
          <mxGeometry relative="1" as="geometry" />
        </mxCell>
        <mxCell id="lu-0-9wE4Z08YnNVhSAf-6" value="" style="edgeStyle=orthogonalEdgeStyle;rounded=0;orthogonalLoop=1;jettySize=auto;html=1;" edge="1" parent="1" source="lu-0-9wE4Z08YnNVhSAf-5" target="lu-0-9wE4Z08YnNVhSAf-1">
          <mxGeometry relative="1" as="geometry" />
        </mxCell>
        <mxCell id="lu-0-9wE4Z08YnNVhSAf-1" value="static-data-service" style="rounded=0;whiteSpace=wrap;html=1;" vertex="1" parent="1">
          <mxGeometry x="-40" y="200" width="200" height="120" as="geometry" />
        </mxCell>
        <mxCell id="lu-0-9wE4Z08YnNVhSAf-2" value="JSON" style="shape=cylinder3;whiteSpace=wrap;html=1;boundedLbl=1;backgroundOutline=1;size=15;" vertex="1" parent="1">
          <mxGeometry x="-38" y="258" width="38" height="60" as="geometry" />
        </mxCell>
        <mxCell id="lu-0-9wE4Z08YnNVhSAf-3" value="static-data-service-ui" style="rounded=0;whiteSpace=wrap;html=1;" vertex="1" parent="1">
          <mxGeometry x="240" y="200" width="200" height="120" as="geometry" />
        </mxCell>
        <mxCell id="lu-0-9wE4Z08YnNVhSAf-12" value="" style="edgeStyle=orthogonalEdgeStyle;rounded=0;orthogonalLoop=1;jettySize=auto;html=1;" edge="1" parent="1" source="lu-0-9wE4Z08YnNVhSAf-11" target="lu-0-9wE4Z08YnNVhSAf-5">
          <mxGeometry relative="1" as="geometry" />
        </mxCell>
        <mxCell id="lu-0-9wE4Z08YnNVhSAf-5" value="consumer-service" style="rounded=0;whiteSpace=wrap;html=1;" vertex="1" parent="1">
          <mxGeometry x="-40" y="400" width="200" height="120" as="geometry" />
        </mxCell>
        <mxCell id="lu-0-9wE4Z08YnNVhSAf-11" value="consumer-service-ui" style="rounded=0;whiteSpace=wrap;html=1;" vertex="1" parent="1">
          <mxGeometry x="240" y="400" width="200" height="120" as="geometry" />
        </mxCell>
        <mxCell id="lu-0-9wE4Z08YnNVhSAf-14" style="rounded=0;orthogonalLoop=1;jettySize=auto;html=1;" edge="1" parent="1" source="lu-0-9wE4Z08YnNVhSAf-13" target="lu-0-9wE4Z08YnNVhSAf-3">
          <mxGeometry relative="1" as="geometry" />
        </mxCell>
        <mxCell id="lu-0-9wE4Z08YnNVhSAf-13" value="Actor" style="shape=umlActor;verticalLabelPosition=bottom;verticalAlign=top;html=1;outlineConnect=0;" vertex="1" parent="1">
          <mxGeometry x="520" y="230" width="30" height="60" as="geometry" />
        </mxCell>
        <mxCell id="lu-0-9wE4Z08YnNVhSAf-16" style="edgeStyle=none;rounded=0;orthogonalLoop=1;jettySize=auto;html=1;" edge="1" parent="1" source="lu-0-9wE4Z08YnNVhSAf-15" target="lu-0-9wE4Z08YnNVhSAf-11">
          <mxGeometry relative="1" as="geometry" />
        </mxCell>
        <mxCell id="lu-0-9wE4Z08YnNVhSAf-15" value="Actor" style="shape=umlActor;verticalLabelPosition=bottom;verticalAlign=top;html=1;outlineConnect=0;" vertex="1" parent="1">
          <mxGeometry x="520" y="430" width="30" height="60" as="geometry" />
        </mxCell>
      </root>
    </mxGraphModel>
  </diagram>
</mxfile>
